<?xml version="1.0" encoding="UTF-8" standalone="no"?>
<svg
   xmlns:dc="http://purl.org/dc/elements/1.1/"
   xmlns:cc="http://creativecommons.org/ns#"
   xmlns:rdf="http://www.w3.org/1999/02/22-rdf-syntax-ns#"
   xmlns:svg="http://www.w3.org/2000/svg"
   xmlns="http://www.w3.org/2000/svg"
   xmlns:sodipodi="http://sodipodi.sourceforge.net/DTD/sodipodi-0.dtd"
   xmlns:inkscape="http://www.inkscape.org/namespaces/inkscape"
   inkscape:version="1.0 (4035a4fb49, 2020-05-01)"
   height="291.5"
   width="338.10001"
   sodipodi:docname="logo-color.svg"
   id="svg26"
   xml:space="preserve"
   viewBox="0 0 338.1 291.49999"
   y="0px"
   x="0px"
   version="1.1"><metadata
   id="metadata32"><rdf:RDF><cc:Work
       rdf:about=""><dc:format>image/svg+xml</dc:format><dc:type
         rdf:resource="http://purl.org/dc/dcmitype/StillImage" /><dc:title></dc:title></cc:Work></rdf:RDF></metadata><defs
   id="defs30" /><sodipodi:namedview
   inkscape:current-layer="svg26"
   inkscape:window-maximized="1"
   inkscape:window-y="-9"
   inkscape:window-x="-9"
   inkscape:cy="74.179134"
   inkscape:cx="119.75064"
   inkscape:zoom="1.464103"
   fit-margin-bottom="0"
   fit-margin-right="0"
   fit-margin-left="0"
   fit-margin-top="0"
   showgrid="false"
   id="namedview28"
   inkscape:window-height="1001"
   inkscape:window-width="1920"
   inkscape:pageshadow="2"
   inkscape:pageopacity="0"
   guidetolerance="10"
   gridtolerance="10"
   objecttolerance="10"
   borderopacity="1"
   bordercolor="#666666"
   pagecolor="#ffffff" />
<style
   id="style2"
   type="text/css">
	.st0{fill:#FFFFFF;}
	.st1{fill:#7C7D7D;}
	.st2{fill:#CDAA6A;}
</style>
<g
   transform="translate(269.69947,343.05357)"
   id="BG">
	<rect
   x="0"
   id="rect4"
   height="566.90002"
   width="841.90002"
   class="st0"
   y="0" />
</g>
<g
   transform="translate(-251.9,-151.5)"
   id="graphics">
	<g
   style="fill:#000000"
   id="g21">
		<g
   style="fill:#000000"
   id="g19">
			<path
   style="fill:#000000"
   id="path7"
   d="m 292.8,420.6 v 16.8 c -4.6,3.3 -11.9,5.6 -17.9,5.6 -13.1,0 -23,-9.5 -23,-22 0,-12.5 10.2,-21.9 23.8,-21.9 6.4,0 13.2,2.5 17.6,6.4 l -6.2,7.5 c -3.1,-2.9 -7.5,-4.7 -11.5,-4.7 -7.1,0 -12.5,5.5 -12.5,12.7 0,7.3 5.5,12.9 12.6,12.9 2.2,0 5,-0.8 7.6,-2.1 v -11.1 h 9.5 z"
   class="st1" />
			<path
   style="fill:#000000"
   id="path9"
   d="m 359.6,420.9 c 0,12.6 -10,22.1 -23.3,22.1 -13.3,0 -23.3,-9.5 -23.3,-22.1 0,-12.6 10,-21.9 23.3,-21.9 13.4,0 23.3,9.4 23.3,21.9 z m -35.4,0.1 c 0,7.3 5.6,12.9 12.2,12.9 6.7,0 11.9,-5.6 11.9,-12.9 0,-7.3 -5.3,-12.7 -11.9,-12.7 -6.6,-0.1 -12.2,5.4 -12.2,12.7 z"
   class="st1" />
			<path
   style="fill:#000000"
   id="path11"
   d="m 410.1,433.3 v 9.2 h -29.3 v -43.1 h 11 v 33.9 z"
   class="st1" />
			<path
   style="fill:#000000"
   id="path13"
   d="m 449.2,399.4 c 13.5,0 22.9,8.7 22.9,21.6 0,12.7 -9.5,21.6 -23.3,21.6 h -18.1 v -43.1 h 18.5 z m -7.5,34.4 h 7.8 c 6.7,0 11.5,-5.2 11.5,-12.7 0,-7.6 -5,-12.9 -12,-12.9 h -7.3 z"
   class="st1" />
			<path
   style="fill:#000000"
   id="path15"
   d="m 504.3,408 v 8.6 h 20.6 v 8.6 h -20.6 v 8.7 h 23.5 v 8.6 h -34.4 v -43.1 h 33.7 v 8.6 z"
   class="st1" />
			<path
   style="fill:#000000"
   id="path17"
   d="M 580.3,442.5 560.5,416 v 26.5 h -10.3 v -43.1 h 9.7 L 579.8,426 V 399.4 H 590 v 43.1 z"
   class="st1" />
		</g>
	</g>
	<path
   id="path23"
   d="m 530.9,220.3 -66.5,-66.5 -2.3,-2.3 h -3.3 -75.7 -3.3 l -2.3,2.3 -66.5,66.5 -2.3,2.3 v 3.3 75.7 3.3 l 2.3,2.3 66.5,66.5 2.3,2.3 h 3.3 75.7 3.3 l 2.3,-2.3 66.5,-66.5 2.3,-2.3 v -3.3 -75.7 -3.3 z M 383.1,159.5 h 34.3 v 49 h 7.1 v -49 h 34.3 c 9.9,9.9 7.6,7.6 17.5,17.5 v 31.5 h 4.8 l 13,13 c -15.4,0 -34.8,0 -50.1,0 v -13 h 19.4 v -26.2 l -9.8,-9.8 h -15.9 v 74.8 h 19.9 v 13 h -32.9 v -38.8 c -8.7,0 -31.9,0 -39.3,0 v -13 h 19.2 v -36 h -15.9 c -10.7,10.7 -19.1,19.1 -29.4,29.4 h -18.4 c 4.9,-5.1 37.6,-37.8 42.2,-42.4 z M 359,344 c -5.1,-5.1 -37.8,-37.8 -42.4,-42.4 v -34.3 h 49 v -7.1 h -49 v -34.3 c 9.9,-9.9 7.6,-7.6 17.5,-17.5 h 31.5 v -4.8 l 13,-13 c 0,15.4 0,34.8 0,50.1 h -13 v -19.4 h -26.2 l -9.8,9.8 V 247 h 74.8 v -19.9 h 13 V 260 h -38.8 c 0,8.7 0,31.9 0,39.3 h -13 v -19.2 h -36 V 296 c 10.7,10.7 19.1,19.1 29.4,29.4 z m 99.8,24 h -34.3 v -49 h -7.1 v 49 h -34.3 c -9.9,-9.9 -7.6,-7.6 -17.5,-17.5 V 319 h -4.8 l -13,-13 c 15.4,0 34.8,0 50.1,0 v 13 h -19.4 v 26.2 l 9.8,9.8 h 15.9 v -74.8 h -19.9 v -13 h 32.9 V 306 c 8.7,0 31.9,0 39.3,0 v 13 h -19.2 v 36 h 15.9 c 10.7,-10.7 19.1,-19.1 29.4,-29.4 H 501 c -4.9,5.1 -37.6,37.8 -42.2,42.4 z m 66.4,-107.8 h -49 v 7.1 h 49 v 34.3 c -9.9,9.9 -7.6,7.6 -17.5,17.5 h -31.5 v 4.8 l -13,13 c 0,-15.4 0,-34.8 0,-50.1 h 13 V 306 h 26.2 l 9.8,-9.8 v -15.9 h -74.8 v 19.9 h -13 v -32.9 h 38.8 c 0,-8.7 0,-31.9 0,-39.3 h 13 v 19.2 h 36 v -15.9 c -10.7,-10.7 -19.1,-19.1 -29.4,-29.4 v -18.4 c 5.1,5.1 37.8,37.8 42.4,42.4 z"
   class="st2" />
</g>
</svg>
