<?xml version="1.0" encoding="utf-8"?>
<!-- Generator: Adobe Illustrator 23.1.0, SVG Export Plug-In . SVG Version: 6.00 Build 0)  -->
<svg version="1.1" id="Capa_1" xmlns="http://www.w3.org/2000/svg" xmlns:xlink="http://www.w3.org/1999/xlink" x="0px" y="0px"
	 viewBox="0 0 512 512" style="enable-background:new 0 0 512 512;" xml:space="preserve">
<g>
	<g>
		<path d="M3.1,493.8l15.1,15.1c4.2,4.2,10.9,4.2,15.1,0L182,360.1c34.8,28.2,79.1,45.2,127.3,45.2c111.8,0,202.7-90.9,202.7-202.7
			S421.1,0,309.3,0S106.7,90.9,106.7,202.7c0,48.2,17,92.5,45.2,127.3L3.1,478.7C-1,482.9-1,489.6,3.1,493.8z M149.3,202.7
			c0-88.2,71.8-160,160-160s160,71.8,160,160s-71.8,160-160,160S149.3,290.9,149.3,202.7z"/>
	</g>
</g>
</svg>
